<svg aria-hidden="true" style="position: absolute; width: 0; height: 0; overflow: hidden;" version="1.1" xmlns="http://www.w3.org/2000/svg" xmlns:xlink="http://www.w3.org/1999/xlink">
<defs>
<symbol id="utube" viewBox="0 0 46 32">
<path fill="" style="" d="M43.896 5.923c-0.502-1.807-1.979-3.229-3.856-3.712-3.401-0.877-17.040-0.877-17.040-0.877s-13.639 0-17.040 0.877c-1.877 0.483-3.354 1.906-3.856 3.712-0.911 3.275-0.911 10.107-0.911 10.107s0 6.832 0.911 10.107c0.502 1.807 1.98 3.17 3.856 3.653 3.401 0.877 17.040 0.877 17.040 0.877s13.639 0 17.040-0.877c1.877-0.483 3.354-1.846 3.856-3.653 0.911-3.275 0.911-10.107 0.911-10.107s0-6.832-0.911-10.107zM18.539 22.232v-12.406l11.399 6.203-11.399 6.203z"></path>
</symbol>
<symbol id="subscribe" viewBox="0 0 32 32">
<path fill="" style="" d="M24.974 20.478c-1.472 0-2.796 0.619-3.736 1.609l-10.983-5.378c0.038-0.251 0.064-0.508 0.064-0.772 0-0.256-0.025-0.507-0.061-0.752l10.967-5.318c0.941 0.996 2.27 1.622 3.749 1.622 2.85 0 5.16-2.31 5.16-5.16s-2.31-5.16-5.16-5.16-5.16 2.31-5.16 5.16c0 0.256 0.025 0.506 0.061 0.752l-10.965 5.318c-0.941-0.996-2.27-1.622-3.749-1.622-2.851 0-5.16 2.31-5.16 5.16s2.31 5.16 5.16 5.16c1.472 0 2.796-0.619 3.736-1.607l10.982 5.378c-0.038 0.251-0.064 0.508-0.064 0.771 0 2.851 2.31 5.16 5.16 5.16s5.16-2.309 5.16-5.16c0.001-2.85-2.309-5.16-5.159-5.16z"></path>
</symbol>
<symbol id="headphones" viewBox="0 0 32 32">
<path fill="" style="" d="M8.807 29.553h-0.572c-1.863 0-3.389-1.523-3.389-3.39v-8.673c0-1.863 1.523-3.389 3.389-3.389h0.572c1.863 0 3.389 1.523 3.389 3.389v8.676c0 1.863-1.526 3.387-3.389 3.387z"></path>
<path fill="" style="" d="M25.529 29.543h-0.572c-1.863 0-3.389-1.523-3.389-3.39v-8.67c0-1.863 1.523-3.389 3.389-3.389h0.572c1.863 0 3.39 1.523 3.39 3.389v8.676c0.003 1.86-1.523 3.383-3.39 3.383z"></path>
<path fill="" style="" d="M3.567 22.22v-5.954c0-7.292 5.725-13.478 13.014-13.641 7.567-0.17 13.629 5.97 13.629 13.496v6.096c-0 0.119 0.023 0.237 0.069 0.347s0.113 0.21 0.197 0.295c0.084 0.084 0.184 0.151 0.294 0.197s0.228 0.069 0.347 0.069c0.119 0 0.237-0.023 0.347-0.069s0.21-0.112 0.295-0.197c0.084-0.084 0.151-0.184 0.197-0.294s0.069-0.228 0.069-0.347v-6.017c0-8.488-6.946-15.637-15.43-15.474-8.224 0.154-14.845 6.872-14.845 15.134v6.359c-0 0.119 0.023 0.237 0.069 0.347s0.112 0.21 0.197 0.295c0.084 0.084 0.184 0.151 0.294 0.197s0.228 0.069 0.347 0.069c0.241-0 0.472-0.096 0.643-0.266s0.267-0.401 0.267-0.642z"></path>
</symbol>
<symbol id="play-circle" viewBox="0 0 32 32">
<path fill="" style="" d="M0 16c0-8.837 7.163-16 16-16s16 7.163 16 16c0 8.837-7.163 16-16 16s-16-7.163-16-16zM14.169 9.848c-1.333-0.738-2.969 0.226-2.969 1.75v8.805c0 1.524 1.636 2.488 2.969 1.75l9.213-5.102c0.382-0.211 0.619-0.613 0.619-1.050s-0.237-0.838-0.619-1.050l-9.213-5.102z"></path>
</symbol>
<symbol id="options" viewBox="0 0 32 32">
<path fill="" style="" d="M28 14.667v-10.667h-10.667l4.387 4.387-13.333 13.333-4.387-4.387v10.667h10.667l-4.387-4.387 13.333-13.333 4.387 4.387z"></path>
</symbol>
<symbol id="volume" viewBox="0 0 32 32">
<path fill="" style="" d="M4 12v8h5.333l6.667 6.667v-21.333l-6.667 6.667h-5.333zM13.333 11.773v8.453l-2.893-2.893h-3.773v-2.667h3.773l2.893-2.893zM22 16c-0-1.117-0.312-2.212-0.901-3.161s-1.431-1.715-2.432-2.212v10.733c1.973-0.973 3.333-3 3.333-5.36zM18.667 4.307v2.747c3.853 1.147 6.667 4.72 6.667 8.947s-2.813 7.8-6.667 8.947v2.747c5.347-1.213 9.333-5.987 9.333-11.693s-3.987-10.48-9.333-11.693z"></path>
</symbol>
<symbol id="save-like" viewBox="0 0 32 32">
<path fill="" style="" d="M22.278 4.8c-2.165 0-4.244 1.008-5.6 2.601-1.356-1.593-3.435-2.601-5.6-2.601-3.833 0-6.844 3.012-6.844 6.844 0 4.704 4.231 8.537 10.64 14.361l1.804 1.63 1.804-1.643c6.409-5.812 10.64-9.645 10.64-14.349 0-3.833-3.012-6.844-6.845-6.844zM16.802 24.151l-0.124 0.125-0.124-0.125c-5.924-5.363-9.831-8.91-9.831-12.507 0-2.489 1.867-4.356 4.356-4.356 1.916 0 3.783 1.232 4.443 2.937h2.327c0.647-1.705 2.514-2.937 4.43-2.937 2.489 0 4.356 1.867 4.356 4.356 0 3.596-3.908 7.143-9.831 12.507z"></path>
</symbol>
<symbol id="note" viewBox="0 0 32 32">
<path fill="" style="" d="M31.944 22.944c0 2.761-2.686 5-5.944 5s-5.944-2.239-5.944-4.944c0-2.761 2.686-4.944 5.944-4.944 0.705 0 1.372 0.12 2.001 0.306v-9.106l-16.001 4.744-0 13.006c-0.056 2.756-2.687 4.994-6.056 4.994s-5.944-2.237-5.944-5c0-2.761 2.686-4.944 5.944-4.944 0.705 0 1.372 0.12 2 0.306v-14.456c0-0.811 0.629-1.664 1.401-1.907l19.944-5.906c0.218-0.052 0.543-0.093 0.712-0.093 1.104 0 1.998 0.896 2 1.999l-0.056 20.944z"></path>
</symbol>
<symbol id="phone" viewBox="0 0 36 32">
<path fill="" style="" d="M34.565 24.188l-1.534 6.3c-0.215 0.891-1.042 1.514-2.010 1.514-16.644-0.001-30.182-12.826-30.182-28.595 0-0.916 0.658-1.7 1.598-1.903l6.65-1.453c0.968-0.213 1.958 0.264 2.36 1.133l3.069 6.781c0.359 0.799 0.117 1.729-0.592 2.278l-3.552 2.702c2.242 4.326 5.955 7.844 10.523 9.969l2.908-3.363c0.573-0.674 1.563-0.907 2.406-0.561l7.158 2.907c0.861 0.429 1.422 1.379 1.197 2.292z"></path>
</symbol>
<symbol id="email" viewBox="0 0 34 32">
<path fill="" style="" d="M32.564 10.188c-1.641-1.226-3.002-2.211-10.839-7.6-1.095-0.762-3.272-2.587-4.809-2.587h-0.053c-1.537 0-3.714 1.826-4.816 2.586-7.838 5.391-9.197 6.319-10.839 7.6-0.762 0.564-1.207 1.439-1.207 2.364v16.45c0 1.656 1.418 3 3.167 3h27.445c1.749 0 3.167-1.343 3.167-2.944v-16.506c0-0.925-0.442-1.8-1.214-2.363zM20.003 22.969c-0.93 0.687-2.025 1.031-3.114 1.031s-2.181-0.343-3.111-1.029l-9.555-7.039v-2.9c1.396-1.037 3.066-2.229 10.318-7.219 0.21-0.146 0.455-0.324 0.724-0.522 0.364-0.263 1.083-0.792 1.624-1.113 0.541 0.321 1.263 0.85 1.624 1.115 0.27 0.198 0.515 0.377 0.735 0.53 7.2 4.959 8.896 6.159 10.308 7.209v2.895l-9.553 7.042z"></path>
</symbol>
<symbol id="ig" viewBox="0 0 33 32">
<path fill="" style="" d="M16.673 8.812c-4.141 0-7.48 3.206-7.48 7.181s3.34 7.181 7.48 7.181 7.48-3.206 7.48-7.181c0-3.975-3.34-7.181-7.48-7.181zM16.673 20.662c-2.676 0-4.863-2.094-4.863-4.669s2.181-4.669 4.863-4.669 4.863 2.094 4.863 4.669c0 2.575-2.187 4.669-4.863 4.669zM26.204 8.519c0 0.931-0.781 1.675-1.745 1.675-0.97 0-1.745-0.75-1.745-1.675s0.781-1.675 1.745-1.675c0.964 0 1.745 0.75 1.745 1.675zM31.159 10.219c-0.111-2.244-0.645-4.231-2.357-5.869-1.706-1.638-3.776-2.15-6.113-2.263-2.409-0.131-9.629-0.131-12.038 0-2.331 0.106-4.401 0.619-6.113 2.256s-2.24 3.625-2.357 5.869c-0.137 2.313-0.137 9.244 0 11.556 0.111 2.244 0.645 4.231 2.357 5.869s3.776 2.15 6.113 2.263c2.409 0.131 9.629 0.131 12.038 0 2.337-0.106 4.408-0.619 6.113-2.263 1.706-1.637 2.239-3.625 2.357-5.869 0.137-2.313 0.137-9.238 0-11.55zM28.047 24.25c-0.508 1.225-1.491 2.169-2.773 2.663-1.921 0.731-6.478 0.563-8.6 0.563s-6.686 0.162-8.6-0.563c-1.276-0.487-2.259-1.431-2.773-2.663-0.762-1.844-0.586-6.219-0.586-8.256s-0.169-6.419 0.586-8.256c0.508-1.225 1.491-2.169 2.773-2.662 1.921-0.731 6.478-0.563 8.6-0.563s6.686-0.162 8.6 0.563c1.276 0.487 2.259 1.431 2.773 2.662 0.762 1.844 0.586 6.219 0.586 8.256s0.176 6.419-0.586 8.256z"></path>
</symbol>
<symbol id="conect" viewBox="0 0 34 32">
<path fill="" style="" d="M33.23 14.138l-11.611 9.444c-1.015 0.831-2.618 0.159-2.618-1.135v-5.44c-10.233 0.137-14.643 2.544-11.651 11.606 0.332 1.006-0.951 1.785-1.851 1.164-2.886-1.989-5.498-5.789-5.498-9.633 0-9.512 8.405-11.525 19-11.644v-4.999c0-1.292 1.602-1.966 2.619-1.135l11.611 9.444c0.733 0.652 0.733 1.727 0.001 2.328z"></path>
</symbol>
<symbol id="burger" viewBox="0 0 41 32">
<path fill="" style="" d="M0.941 30.501h39.529v-4.853h-39.529v4.853zM0.941 18.369h39.529v-4.853h-39.529v4.853zM0.941 1.383v4.853h39.529v-4.853h-39.529z"></path>
</symbol>
<symbol id="home" viewBox="0 0 37 32">
<path fill="" style="" d="M18.286 5.544l8.889 8v13.884h-3.555v-10.667h-10.667v10.667h-3.556v-13.884l8.889-8zM18.286 0.762l-17.778 16h5.333v14.222h10.667v-10.667h3.555v10.667h10.667v-14.222h5.333l-17.778-16z"></path>
</symbol>
<symbol id="search" viewBox="0 0 32 32">
<path fill="" style="" d="M22.984 20.317h-1.404l-0.498-0.48c1.802-2.090 2.793-4.76 2.791-7.52 0-2.285-0.678-4.52-1.948-6.42s-3.074-3.381-5.186-4.256c-2.112-0.875-4.435-1.103-6.677-0.658s-4.301 1.546-5.917 3.163c-1.616 1.616-2.717 3.675-3.163 5.917s-0.217 4.565 0.658 6.677c0.875 2.111 2.356 3.916 4.256 5.186s4.134 1.948 6.42 1.948c2.862 0 5.493-1.049 7.52-2.791l0.48 0.498v1.404l8.889 8.871 2.649-2.649-8.871-8.889zM12.317 20.317c-4.427 0-8-3.573-8-8s3.573-8 8-8c4.427 0 8 3.573 8 8s-3.573 8-8 8z"></path>
</symbol>
<symbol id="library" viewBox="0 0 35 32">
<path fill="" style="" d="M33.62 8.089c-0.731-0.373-1.493-0.684-2.287-0.949v18.713c-1.773-0.638-3.593-0.964-5.444-0.964-2.956 0-5.88 0.84-8.556 2.458v-18.822c-2.52-1.447-5.429-2.302-8.556-2.302-2.784 0-5.413 0.684-7.731 1.867-0.513 0.249-0.824 0.793-0.824 1.369v18.791c0 0.902 0.731 1.54 1.556 1.54 0.249 0 0.498-0.062 0.747-0.187 1.882-0.98 3.998-1.602 6.253-1.602 3.22 0 6.191 1.276 8.556 3.111 2.365-1.836 5.336-3.111 8.556-3.111 2.256 0 4.371 0.622 6.253 1.618 0.249 0.124 0.498 0.187 0.747 0.187 0.809 0 1.556-0.638 1.556-1.54v-18.807c0-0.576-0.311-1.12-0.825-1.369zM14.222 25.853c-1.773-0.638-3.593-0.964-5.444-0.964s-3.671 0.327-5.444 0.964v-15.416c1.727-0.731 3.547-1.104 5.444-1.104 1.867 0 3.718 0.389 5.444 1.12v15.4zM28.222 0.778l-7.778 7.778v14.778l7.778-7v-15.556z"></path>
</symbol>
<symbol id="arrow" viewBox="0 0 44 32">
<path d="M43 12.978h-33.063l8.353-9.256-3.29-3.635-14 15.469 14 15.469 3.29-3.635-8.353-9.256h33.063v-5.156z"></path>
</symbol>
<symbol id="like" viewBox="0 0 34 32">
<path fill="" style="" d="M16.8 31.478l-2.223-2.236c-7.897-7.912-13.11-13.131-13.11-19.535 0-5.218 3.711-9.318 8.433-9.318 2.668 0 5.229 1.372 6.9 3.541 1.671-2.169 4.232-3.541 6.9-3.541 4.723 0 8.433 4.1 8.433 9.318 0 6.404-5.213 11.623-13.11 19.552l-2.223 2.219z"></path>
</symbol>
<symbol id="upload" viewBox="0 0 20 32">
<path fill="" style="" d="M15.36 5.742l-1.818 2.008-2.035-2.249v15.798h-2.534v-15.798l-2.035 2.249-1.818-2.008 5.12-5.657 5.12 5.657zM20.48 12.813v15.558c0 1.556-1.152 2.829-2.56 2.829h-15.36c-0.679 0-1.33-0.298-1.81-0.829s-0.75-1.25-0.75-2v-15.558c0-1.57 1.139-2.829 2.56-2.829h3.84v2.829h-3.84v15.558h15.36v-15.558h-3.84v-2.829h3.84c0.679 0 1.33 0.298 1.81 0.829s0.75 1.25 0.75 2z"></path>
</symbol>
<symbol id="stop" viewBox="0 0 26 32">
<path fill="" style="" d="M0.941 31.559h8.157v-31.545h-8.157v31.545zM17.255 0.014v31.545h8.157v-31.545h-8.157z"></path>
</symbol>
<symbol id="next" viewBox="0 0 40 32">
<path fill="" style="" d="M25.264 10.505l6.804 5.31-6.804 5.31v-10.62zM5.053 10.505l6.804 5.31-6.804 5.31v-10.62zM20.772 0.927v29.776l19.088-14.888-19.088-14.888zM0.562 0.927v29.776l19.088-14.888-19.088-14.888z"></path>
</symbol>
<symbol id="past" viewBox="0 0 40 32">
<path fill="" style="" d="M35.369 10.505v10.62l-6.804-5.31 6.804-5.31zM15.158 10.505v10.62l-6.804-5.31 6.804-5.31zM39.86 0.927l-19.088 14.888 19.088 14.888v-29.776zM19.649 0.927l-19.088 14.888 19.088 14.888v-29.776z"></path>
</symbol>
<symbol id="follow" viewBox="0 0 32 32">
<path fill="" style="" d="M17.273 10.909c0-2.813-2.278-5.091-5.091-5.091s-5.091 2.278-5.091 5.091 2.278 5.091 5.091 5.091c2.813 0 5.091-2.278 5.091-5.091zM14.727 10.909c0 1.4-1.145 2.545-2.545 2.545s-2.545-1.145-2.545-2.545c0-1.4 1.145-2.545 2.545-2.545s2.545 1.145 2.545 2.545zM2 23.636v2.545h20.364v-2.545c0-3.385-6.784-5.091-10.182-5.091s-10.182 1.705-10.182 5.091zM4.545 23.636c0.255-0.904 4.2-2.545 7.636-2.545 3.424 0 7.356 1.629 7.636 2.545h-15.273zM26.182 19.818v-3.818h3.818v-2.545h-3.818v-3.818h-2.545v3.818h-3.818v2.545h3.818v3.818h2.545z"></path>
</symbol>
<symbol id="play" viewBox="0 0 37 32">
<path fill="" style="" d="M29.127 13.438c0.917 0.55 1.474 1.519 1.474 2.562s-0.558 2.012-1.474 2.506l-18.455 11c-0.95 0.619-2.139 0.644-3.109 0.112s-1.571-1.531-1.571-2.619v-22c0-1.085 0.601-2.086 1.571-2.617s2.159-0.509 3.109 0.057l18.455 10.998z"></path>
</symbol>
<symbol id="close" viewBox="0 0 32 32">
<path d="M31.708 25.708c-0-0-0-0-0-0l-9.708-9.708 9.708-9.708c0-0 0-0 0-0 0.105-0.105 0.18-0.227 0.229-0.357 0.133-0.356 0.057-0.771-0.229-1.057l-4.586-4.586c-0.286-0.286-0.702-0.361-1.057-0.229-0.13 0.048-0.252 0.124-0.357 0.228 0 0-0 0-0 0l-9.708 9.708-9.708-9.708c-0-0-0-0-0-0-0.105-0.104-0.227-0.18-0.357-0.228-0.356-0.133-0.771-0.057-1.057 0.229l-4.586 4.586c-0.286 0.286-0.361 0.702-0.229 1.057 0.049 0.13 0.124 0.252 0.229 0.357 0 0 0 0 0 0l9.708 9.708-9.708 9.708c-0 0-0 0-0 0-0.104 0.105-0.18 0.227-0.229 0.357-0.133 0.355-0.057 0.771 0.229 1.057l4.586 4.586c0.286 0.286 0.702 0.361 1.057 0.229 0.13-0.049 0.252-0.124 0.357-0.229 0-0 0-0 0-0l9.708-9.708 9.708 9.708c0 0 0 0 0 0 0.105 0.105 0.227 0.18 0.357 0.229 0.356 0.133 0.771 0.057 1.057-0.229l4.586-4.586c0.286-0.286 0.362-0.702 0.229-1.057-0.049-0.13-0.124-0.252-0.229-0.357z"></path>
</symbol>
<symbol id="tiktok" viewBox="0 0 32 32">
<path d="M16.707 0.027c1.747-0.027 3.48-0.013 5.213-0.027 0.107 2.040 0.84 4.12 2.333 5.56 1.493 1.48 3.6 2.16 5.653 2.387v5.373c-1.92-0.067-3.853-0.467-5.6-1.293-0.76-0.347-1.467-0.787-2.16-1.24-0.013 3.893 0.013 7.787-0.027 11.667-0.107 1.867-0.72 3.72-1.8 5.253-1.747 2.56-4.773 4.227-7.88 4.28-1.907 0.107-3.813-0.413-5.44-1.373-2.693-1.587-4.587-4.493-4.867-7.613-0.027-0.667-0.040-1.333-0.013-1.987 0.24-2.533 1.493-4.96 3.44-6.613 2.213-1.92 5.307-2.84 8.2-2.293 0.027 1.973-0.053 3.947-0.053 5.92-1.32-0.427-2.867-0.307-4.027 0.493-0.84 0.547-1.48 1.387-1.813 2.333-0.28 0.68-0.2 1.427-0.187 2.147 0.32 2.187 2.427 4.027 4.667 3.827 1.493-0.013 2.92-0.88 3.693-2.147 0.253-0.44 0.533-0.893 0.547-1.413 0.133-2.387 0.080-4.76 0.093-7.147 0.013-5.373-0.013-10.733 0.027-16.093z"></path>
</symbol>
</defs>
</svg>
