<?xml version="1.0" standalone="no"?>
<!DOCTYPE svg PUBLIC "-//W3C//DTD SVG 20010904//EN"
 "http://www.w3.org/TR/2001/REC-SVG-20010904/DTD/svg10.dtd">
<svg version="1.0" xmlns="http://www.w3.org/2000/svg"
 width="717.000000pt" height="717.000000pt" viewBox="0 0 717.000000 717.000000"
 preserveAspectRatio="xMidYMid meet">
<metadata>
Created by potrace 1.14, written by Peter Selinger 2001-2017
</metadata>
<g transform="translate(0.000000,717.000000) scale(0.100000,-0.100000)"
fill="#000000" stroke="none">
<path d="M3359 7166 c-2 -2 -42 -7 -89 -10 -47 -4 -98 -9 -115 -12 -16 -2 -46
-6 -65 -8 -19 -2 -51 -7 -70 -10 -19 -3 -46 -8 -60 -10 -452 -75 -962 -280
-1365 -549 -78 -52 -290 -210 -305 -226 -3 -3 -40 -37 -83 -74 -170 -151 -348
-342 -467 -502 -25 -33 -47 -62 -50 -65 -5 -5 -11 -14 -81 -115 -98 -142 -250
-420 -314 -575 -14 -36 -32 -78 -40 -95 -54 -123 -153 -451 -179 -595 -2 -14
-9 -47 -15 -75 -6 -27 -13 -68 -16 -90 -3 -22 -7 -53 -10 -70 -24 -153 -30
-260 -30 -500 1 -253 11 -414 35 -535 5 -25 11 -63 14 -85 4 -33 14 -83 41
-205 24 -111 83 -302 141 -458 23 -63 30 -78 79 -187 234 -516 560 -940 1012
-1315 227 -189 565 -392 863 -518 278 -117 651 -220 895 -248 33 -3 67 -8 76
-9 136 -26 704 -26 858 0 14 2 44 6 66 10 23 3 52 7 65 10 13 3 42 7 65 11
123 17 393 87 515 132 8 3 17 6 20 7 101 26 409 163 580 258 426 236 837 596
1122 981 37 50 71 96 75 101 7 9 70 107 129 200 46 73 104 179 104 190 0 7 7
18 15 25 8 7 15 16 15 20 0 4 22 54 49 111 60 129 93 212 143 359 37 108 101
338 112 405 37 217 56 343 63 423 15 181 8 650 -12 752 -2 12 -7 43 -10 69 -5
47 -12 87 -40 223 -9 42 -18 87 -20 100 -7 35 -64 240 -74 263 -5 11 -16 43
-24 70 -67 223 -263 617 -422 849 -48 70 -197 267 -234 309 -132 152 -301 319
-425 422 -27 22 -54 45 -60 50 -44 42 -280 206 -416 291 -105 64 -296 161
-441 223 -186 78 -525 184 -667 207 -15 2 -47 9 -72 14 -25 5 -94 16 -155 24
-60 9 -130 18 -155 22 -46 6 -565 15 -571 10z"/>
</g>
</svg>
